<svg width="148" height="16" viewBox="0 0 148 16" fill="none" xmlns="http://www.w3.org/2000/svg">
<path fill-rule="evenodd" clip-rule="evenodd" d="M75 1.0071L74.9251 0.849882H72.7811V15.0146L75 15.0146V1.0071ZM77 10.4129L78.4931 13.5172H79.6611L82.9571 6.51577L82.9731 15.0146H85.4051L85.3731 0.849882H83.2451L79.1171 9.65224L77 5.2067V10.4129ZM43.1561 0.849882H45V15.0146L43.1561 15.0146V0.849882ZM48.0041 11.0687H47V8.45835H47.8601C48.6388 8.45835 49.2308 8.24251 49.6361 7.81082C50.0415 7.37914 50.2441 6.77208 50.2441 5.98965C50.2441 5.19373 50.0415 4.58667 49.6361 4.16847C49.2308 3.73678 48.6388 3.52094 47.8601 3.52094H47V0.849882H48.0041C48.9961 0.849882 49.8548 1.05898 50.5801 1.47718C51.3161 1.89537 51.8815 2.48894 52.2761 3.25788C52.6708 4.02682 52.8681 4.93741 52.8681 5.98965C52.8681 7.04188 52.6655 7.95247 52.2601 8.72141C51.8655 9.47686 51.3001 10.0569 50.5641 10.4616L53.0761 15.0146H50.2921L48.1321 11.0687H48.0041ZM23 0.849882H20.8593V15.0146H23V0.849882ZM25 11.1092H25.7073C26.6993 11.1092 27.5579 10.9068 28.2833 10.5021C29.0193 10.0839 29.5846 9.49035 29.9793 8.72141C30.3739 7.93898 30.5713 7.02839 30.5713 5.98965C30.5713 4.93741 30.3739 4.02682 29.9793 3.25788C29.5846 2.48894 29.0193 1.89537 28.2833 1.47718C27.5579 1.05898 26.6993 0.849882 25.7073 0.849882H25V3.52094H25.5633C26.3419 3.52094 26.9339 3.73678 27.3393 4.16847C27.7446 4.58667 27.9473 5.19373 27.9473 5.98965C27.9473 6.77208 27.7446 7.37914 27.3393 7.81082C26.9339 8.22902 26.3419 8.43812 25.5633 8.43812H25V11.1092ZM124.039 12.2424L125.239 10.7449L127.959 15.0146H130.983L127.079 8.74165L130.663 4.128H127.687L124.039 8.49882V0H121.543V15.0146H124.039V12.2424ZM0.328003 0.849882H2.92V15.0146H0.328003V0.849882ZM15.77 15.0146L15.754 6.51577L12.458 13.5172H11.29L8.01 6.69788V15.0146H5.578V0.849882H7.722L11.914 9.65224L16.042 0.849882H18.17L18.202 15.0146H15.77ZM41.0938 12.384V15.0146H32.4218V0.849882H40.8858V3.48047H34.9978V6.55624H40.1978V9.10588H34.9978V12.384H41.0938ZM54.9218 0.849882H57.5138V15.0146H54.9218V0.849882ZM61.4038 13.5779C62.2998 14.6976 63.5478 15.2574 65.1478 15.2574C66.7477 15.2574 67.9904 14.6976 68.8757 13.5779C69.7717 12.4582 70.2197 10.8596 70.2197 8.78212V0.849882H67.6598V8.66071C67.6598 9.96926 67.4464 10.9338 67.0198 11.5544C66.5931 12.1614 65.9744 12.4649 65.1637 12.4649C63.4997 12.4649 62.6678 11.1969 62.6678 8.66071V0.849882H60.0758V8.78212C60.0758 10.8596 60.5184 12.4582 61.4038 13.5779ZM87.7264 14.6099C88.025 14.9876 88.393 15.1765 88.8304 15.1765C89.2677 15.1765 89.6357 14.9876 89.9344 14.6099C90.233 14.2322 90.3824 13.76 90.3824 13.1934C90.3824 12.6133 90.233 12.1479 89.9344 11.7972C89.6357 11.4329 89.2677 11.2508 88.8304 11.2508C88.393 11.2508 88.025 11.4329 87.7264 11.7972C87.4277 12.1479 87.2784 12.6133 87.2784 13.1934C87.2784 13.76 87.4277 14.2322 87.7264 14.6099ZM100.474 7.64894C101.114 7.90526 101.615 8.33694 101.978 8.944C102.341 9.53757 102.522 10.2728 102.522 11.1496C102.522 12.3907 102.138 13.3485 101.37 14.0231C100.613 14.6841 99.5032 15.0146 98.0419 15.0146H92.2499V0.849882H97.7219C99.0872 0.849882 100.133 1.18039 100.858 1.84141C101.594 2.50243 101.962 3.39953 101.962 4.53271C101.962 5.22071 101.829 5.83451 101.562 6.37412C101.306 6.91373 100.943 7.33867 100.474 7.64894ZM94.8259 3.31859V6.65741H97.4019C98.0419 6.65741 98.5272 6.51577 98.8579 6.23247C99.1885 5.94918 99.3539 5.53098 99.3539 4.97788C99.3539 4.42478 99.1885 4.01333 98.8579 3.74353C98.5272 3.46024 98.0419 3.31859 97.4019 3.31859H94.8259ZM97.8499 12.5459C98.5325 12.5459 99.0445 12.4042 99.3859 12.1209C99.7379 11.8376 99.9139 11.3992 99.9139 10.8056C99.9139 9.632 99.2259 9.04518 97.8499 9.04518H94.8259V12.5459H97.8499ZM107.892 4.37082C107.391 4.64063 106.991 5.03859 106.692 5.56471V4.128H104.308V15.0146H106.804V9.87482C106.804 8.86306 107.007 8.10761 107.412 7.60847C107.818 7.09584 108.378 6.83953 109.092 6.83953C109.188 6.83953 109.375 6.85302 109.652 6.88V3.96612C108.991 3.96612 108.404 4.10102 107.892 4.37082ZM115.154 15.1765C114.248 15.1765 113.432 14.9404 112.706 14.4682C111.992 13.9826 111.432 13.3148 111.026 12.4649C110.621 11.6151 110.418 10.6505 110.418 9.57129C110.418 8.49208 110.621 7.52753 111.026 6.67765C111.432 5.82776 111.992 5.16675 112.706 4.69459C113.432 4.20894 114.248 3.96612 115.154 3.96612C116.061 3.96612 116.872 4.20894 117.586 4.69459C118.301 5.16675 118.861 5.82776 119.266 6.67765C119.672 7.52753 119.874 8.49208 119.874 9.57129C119.874 10.6505 119.672 11.6151 119.266 12.4649C118.861 13.3148 118.301 13.9826 117.586 14.4682C116.872 14.9404 116.061 15.1765 115.154 15.1765ZM115.154 12.5864C115.794 12.5864 116.317 12.3165 116.722 11.7769C117.138 11.2238 117.346 10.4886 117.346 9.57129C117.346 8.65396 117.138 7.92549 116.722 7.38588C116.317 6.83279 115.794 6.55624 115.154 6.55624C114.514 6.55624 113.986 6.83279 113.57 7.38588C113.154 7.92549 112.946 8.65396 112.946 9.57129C112.946 10.4886 113.154 11.2238 113.57 11.7769C113.986 12.3165 114.514 12.5864 115.154 12.5864ZM140.162 9.61176C140.162 9.65224 140.146 9.93553 140.114 10.4616H133.602C133.719 11.1362 133.997 11.669 134.434 12.0602C134.871 12.4515 135.415 12.6471 136.066 12.6471C136.514 12.6471 136.909 12.5661 137.25 12.4042C137.602 12.2289 137.927 11.9591 138.226 11.5948L139.554 13.416C138.743 14.5896 137.559 15.1765 136.002 15.1765C135.031 15.1765 134.173 14.9404 133.426 14.4682C132.679 13.9826 132.103 13.3148 131.698 12.4649C131.293 11.6151 131.09 10.6505 131.09 9.57129C131.09 8.50557 131.287 7.54777 131.682 6.69788C132.087 5.83451 132.637 5.16675 133.33 4.69459C134.034 4.20894 134.818 3.96612 135.682 3.96612C136.525 3.96612 137.287 4.19545 137.97 4.65412C138.653 5.11278 139.186 5.7738 139.57 6.63718C139.965 7.48706 140.162 8.47859 140.162 9.61176ZM135.698 6.35388C135.133 6.35388 134.658 6.55624 134.274 6.96094C133.89 7.36565 133.655 7.91875 133.57 8.62024H137.81C137.725 7.93224 137.49 7.38588 137.106 6.98118C136.722 6.56298 136.253 6.35388 135.698 6.35388ZM145.408 4.37082C144.907 4.64063 144.507 5.03859 144.208 5.56471V4.128H141.824V15.0146H144.32V9.87482C144.32 8.86306 144.523 8.10761 144.928 7.60847C145.333 7.09584 145.893 6.83953 146.608 6.83953C146.704 6.83953 146.891 6.85302 147.168 6.88V3.96612C146.507 3.96612 145.92 4.10102 145.408 4.37082Z" fill="white"/>
</svg>
